<?xml version="1.0" standalone="no"?>
<!DOCTYPE svg PUBLIC "-//W3C//DTD SVG 20010904//EN"
 "http://www.w3.org/TR/2001/REC-SVG-20010904/DTD/svg10.dtd">
<svg version="1.0" xmlns="http://www.w3.org/2000/svg"
 width="64.000000pt" height="64.000000pt" viewBox="0 0 64.000000 64.000000"
 preserveAspectRatio="xMidYMid meet">

<g transform="translate(0.000000,64.000000) scale(0.100000,-0.100000)"
fill="#000000" stroke="none">
<path d="M207 550 c-14 -11 -34 -20 -45 -20 -18 0 -52 -28 -52 -44 0 -5 -14
-21 -31 -37 -20 -18 -30 -36 -28 -51 2 -13 -2 -33 -9 -45 -34 -61 6 -133 73
-133 49 0 85 36 85 85 0 19 -4 35 -10 35 -5 0 -10 -11 -10 -25 0 -26 -40 -75
-60 -75 -20 0 -49 20 -60 41 -15 27 -3 58 26 69 27 10 33 30 9 30 -19 0 -19
34 0 50 13 10 19 10 33 -4 20 -18 52 -22 52 -6 0 6 -4 10 -9 10 -12 0 -41 29
-41 40 0 18 33 40 51 35 13 -5 26 1 39 17 15 19 22 21 37 12 16 -10 18 -30 21
-203 l2 -191 -24 -25 c-31 -31 -50 -31 -81 -1 -13 13 -35 26 -50 30 -18 5 -31
18 -41 42 -14 33 -34 39 -34 9 0 -17 48 -75 62 -75 6 0 23 -11 40 -25 39 -33
90 -34 123 0 25 24 25 24 25 234 0 206 0 210 -22 225 -29 21 -40 20 -71 -4z"/>
<path d="M362 554 c-22 -15 -22 -19 -22 -225 0 -210 0 -210 25 -234 32 -32 83
-33 122 -2 15 12 40 29 55 36 30 15 53 61 46 89 -3 10 1 27 8 37 17 23 18 69
2 98 -7 12 -11 32 -9 45 2 15 -8 33 -28 51 -17 16 -31 33 -31 38 0 16 -35 43
-54 43 -10 0 -29 9 -43 20 -31 24 -42 25 -71 4z m57 -28 c8 -10 9 -16 1 -21
-11 -7 -14 -45 -4 -45 4 0 17 11 30 25 27 30 53 24 60 -14 3 -15 15 -31 27
-36 26 -12 36 -55 13 -55 -24 0 -19 -19 8 -30 35 -13 42 -46 18 -79 -13 -17
-18 -37 -15 -53 7 -35 -12 -66 -43 -74 -14 -4 -36 -17 -49 -30 -31 -30 -50
-30 -80 1 -25 24 -25 26 -25 213 0 187 4 212 36 212 6 0 17 -6 23 -14z"/>
<path d="M410 400 c0 -5 5 -10 10 -10 6 0 10 5 10 10 0 6 -4 10 -10 10 -5 0
-10 -4 -10 -10z"/>
<path d="M437 314 c-26 -26 23 -94 68 -94 34 0 32 13 -5 27 -18 7 -34 23 -42
43 -7 17 -16 28 -21 24z"/>
</g>
</svg>
